<svg xmlns="http://www.w3.org/2000/svg" viewBox="0 0 32 32">
  <rect width="32" height="32" rx="4" fill="#9E3039"/>

  <!-- Latvia contours in subtle darker shade -->
  <path fill="#8A2A33" d="M23.54,25.5l-6.73-4.98c-4.78.93-7.21.4-9.57-.11-.3-.07-.61-.13-.92-.2l-4.77,3.32-.32-1.47c-.73-3.39.24-7.15,2.88-11.19l.17-.26,4.18-1.68,3.61,5.22,1.98-.81-.23-4.69,4.91-2.28,4.23,3.87,1.58-.71,4.61,2.52,1.9,8.06-.2.34c-.09.15-.17.30-.25.45-1.02,1.83-2.17,3.9-6.67,4.54l-.41.06h0ZM17.29,18.38l6.78,5.02c3.17-.55,3.93-1.91,4.8-3.47.02-.04.05-.09.07-.13l-1.52-6.42-2.96-1.61-1.88.84-4.22-3.86-2.48,1.15.23,4.76-4.78,1.95-3.61-5.23-2.11.85c-1.8,2.84-2.68,5.47-2.61,7.85l2.87-2,.41.08c.48.09.94.19,1.39.29,2.32.51,4.52.99,9.17.02l.44-.09h0Z"/>

  <!-- ID card icon -->
  <g fill="white">
    <rect x="4" y="5" width="24" height="22" rx="2" fill="none" stroke="white" stroke-width="1.5"/>
    <rect x="6" y="11" width="6" height="2"/>
    <rect x="6" y="15" width="4" height="2"/>
    <path d="M22,18H17a2.5,2.5,0,0,0-2.5,2.5V22h1.5V20.5a1,1,0,0,1,1-1h5a1,1,0,0,1,1,1V22H25V20.5A2.5,2.5,0,0,0,22,18Z"/>
    <circle cx="19.5" cy="13" r="2.5"/>
  </g>
</svg>
